<svg width="320px" height="320px" viewBox="0 0 320 320" version="1.1" xmlns="http://www.w3.org/2000/svg" xmlns:xlink="http://www.w3.org/1999/xlink">
    <g id="Page-1" stroke="none" stroke-width="1" fill="none" fill-rule="evenodd">
        <path d="M0,0 L320,0 L320,320 L0,320 L0,0 Z M192.5,156.871875 C192.5,156.63125 192.409375,156.425 192.2375,156.24375 L185.09375,149.1 C184.915625,148.921875 184.70625,148.834375 184.465625,148.834375 C184.221875,148.834375 184.015625,148.921875 183.8375,149.1 C183.659375,149.278125 183.571875,149.4875 183.571875,149.728125 L183.571875,153.303125 L180.446875,153.303125 C173.815625,153.303125 169.75,155.178125 168.240625,158.921875 C167.746875,160.16875 167.5,161.71875 167.5,163.56875 C167.5,165.115625 168.0875,167.2125 169.271875,169.85625 C169.303125,169.91875 169.35,170.03125 169.41875,170.190625 C169.490625,170.35 169.55,170.49375 169.60625,170.6125 C169.665625,170.734375 169.728125,170.8375 169.790625,170.921875 C169.903125,171.08125 170.03125,171.159375 170.18125,171.159375 C170.321875,171.159375 170.43125,171.1125 170.509375,171.01875 C170.584375,170.925 170.625,170.809375 170.625,170.66875 C170.625,170.584375 170.6125,170.4625 170.5875,170.3 C170.5625,170.1375 170.55,170.028125 170.55,169.971875 C170.50625,169.3375 170.48125,168.765625 170.48125,168.25625 C170.48125,167.3125 170.5625,166.471875 170.725,165.728125 C170.890625,164.98125 171.115625,164.3375 171.403125,163.79375 C171.69375,163.25 172.065625,162.78125 172.51875,162.384375 C172.975,161.990625 173.465625,161.66875 173.990625,161.415625 C174.515625,161.165625 175.134375,160.96875 175.84375,160.825 C176.55625,160.68125 177.271875,160.58125 177.99375,160.525 C178.7125,160.471875 179.528125,160.440625 180.440625,160.440625 L183.56875,160.440625 L183.56875,164.01875 C183.56875,164.2625 183.65625,164.46875 183.834375,164.646875 C184.0125,164.825 184.221875,164.9125 184.4625,164.9125 C184.703125,164.9125 184.9125,164.825 185.090625,164.646875 L192.234375,157.5 C192.4125,157.321875 192.5,157.1125 192.5,156.871875 Z" id="Combined-Shape" fill="#D8D8D8"></path>
    </g>
</svg>