<svg width="320px" height="320px" viewBox="0 0 320 320" version="1.1" xmlns="http://www.w3.org/2000/svg" xmlns:xlink="http://www.w3.org/1999/xlink">
    <g id="Page-1" stroke="none" stroke-width="1" fill="none" fill-rule="evenodd">
        <path d="M0,0 L320,0 L320,320 L0,320 L0,0 Z M138.246,168.677 L136.785,168.677 C132.569,167.988 129.341,164.316 129.341,159.905 C129.341,158.427 129.72,157.045 130.361,155.818 L131.451,157.329 C132.245,158.428 133.956,158.122 134.32,156.815 L136.386,149.385 C136.673,148.353 135.897,147.331 134.826,147.333 L127.406,147.344 C126.088,147.346 125.326,148.839 126.097,149.909 L128.103,152.689 C126.65,154.725 125.788,157.212 125.788,159.904 C125.788,166.125 130.351,171.281 136.309,172.201 C136.471,172.226 136.629,172.219 136.784,172.199 L136.784,172.221 L138.245,172.221 C139.214,172.221 139.999,171.436 139.999,170.466 L139.999,170.43 C139.999,169.461 139.214,168.675 138.245,168.675 L138.246,168.677 Z M151.895,166.867 C153.349,164.831 154.21,162.344 154.21,159.652 C154.21,153.431 149.648,148.275 143.69,147.354 C143.528,147.329 143.37,147.336 143.215,147.357 L143.215,147.334 L141.753,147.334 C140.785,147.334 140,148.12 140,149.089 L140,149.125 C140,150.095 140.785,150.881 141.753,150.881 L143.215,150.881 C147.431,151.57 150.658,155.242 150.658,159.653 C150.658,161.131 150.279,162.513 149.639,163.74 L148.548,162.229 C147.755,161.13 146.043,161.436 145.68,162.742 L143.613,170.172 C143.326,171.205 144.103,172.226 145.174,172.224 L152.594,172.214 C153.912,172.212 154.674,170.718 153.903,169.649 L151.895,166.867 Z" id="Combined-Shape" fill="#D8D8D8"></path>
    </g>
</svg>